HIERARCHY
ROOT hip
{
  OFFSET 0 0 0
  CHANNELS 6 Xposition Yposition Zposition Zrotation Yrotation Xrotation
  JOINT abdomen
  {
    OFFSET 0 20.6881 -0.73152
    CHANNELS 3 Zrotation Xrotation Yrotation
    JOINT chest
    {
      OFFSET 0 11.7043 -0.48768
      CHANNELS 3 Zrotation Xrotation Yrotation
      JOINT neck
      {
        OFFSET 0 22.1894 -2.19456
        CHANNELS 3 Zrotation Xrotation Yrotation
        JOINT head
        {
          OFFSET -0.24384 7.07133 1.2192
          CHANNELS 3 Zrotation Xrotation Yrotation
          JOINT leftEye
          {
            OFFSET 4.14528 8.04674 8.04672
            CHANNELS 3 Zrotation Xrotation Yrotation
            End Site
            {
              OFFSET 1 0 0
            }
          }
          JOINT rightEye
          {
            OFFSET -3.6576 8.04674 8.04672
            CHANNELS 3 Zrotation Xrotation Yrotation
            End Site
            {
              OFFSET 1 0 0
            }
          }
        }
      }
      JOINT rCollar
      {
        OFFSET -2.68224 19.2634 -4.8768
        CHANNELS 3 Zrotation Xrotation Yrotation
        JOINT rShldr
        {
          OFFSET -8.77824 -1.95073 1.46304
          CHANNELS 3 Zrotation Xrotation Yrotation
          JOINT rForeArm
          {
            OFFSET -28.1742 -1.7115 0.48768
            CHANNELS 3 Zrotation Xrotation Yrotation
            JOINT rHand
            {
              OFFSET -22.5879 0.773209 7.07136
              CHANNELS 3 Zrotation Xrotation Yrotation
              JOINT rThumb1
              {
                OFFSET -1.2192 -0.487915 3.41376
                CHANNELS 3 Zrotation Xrotation Yrotation
                JOINT rThumb2
                {
                  OFFSET -3.37035 -0.52449 3.41376
                  CHANNELS 3 Zrotation Xrotation Yrotation
                  End Site
                  {
                    OFFSET -1.78271 -1.18214 1.43049
                  }
                }
              }
              JOINT rIndex1
              {
                OFFSET -7.75947 0.938293 5.60832
                CHANNELS 3 Zrotation Xrotation Yrotation
                JOINT rIndex2
                {
                  OFFSET -2.54057 -0.884171 1.56538
                  CHANNELS 3 Zrotation Xrotation Yrotation
                  End Site
                  {
                    OFFSET -1.62519 -0.234802 1.16502
                  }
                }
              }
              JOINT rMid1
              {
                OFFSET -8.24714 1.18213 3.41376
                CHANNELS 3 Zrotation Xrotation Yrotation
                JOINT rMid2
                {
                  OFFSET -3.10165 -0.590103 1.0647
                  CHANNELS 3 Zrotation Xrotation Yrotation
                  End Site
                  {
                    OFFSET -2.48547 -0.328903 0.83742
                  }
                }
              }
              JOINT rRing1
              {
                OFFSET -8.82822 0.546677 1.51678
                CHANNELS 3 Zrotation Xrotation Yrotation
                JOINT rRing2
                {
                  OFFSET -2.60934 -0.819778 -0.0198488
                  CHANNELS 3 Zrotation Xrotation Yrotation
                  End Site
                  {
                    OFFSET -2.33842 -0.294052 0.168128
                  }
                }
              }
              JOINT rPinky1
              {
                OFFSET -8.27202 -0.0477905 -0.4584
                CHANNELS 3 Zrotation Xrotation Yrotation
                JOINT rPinky2
                {
                  OFFSET -1.82734 -0.647385 -0.700984
                  CHANNELS 3 Zrotation Xrotation Yrotation
                  End Site
                  {
                    OFFSET -1.69225 -0.51767 -0.607171
                  }
                }
              }
            }
          }
        }
      }
      JOINT lCollar
      {
        OFFSET 2.68224 19.2634 -4.8768
        CHANNELS 3 Zrotation Xrotation Yrotation
        JOINT lShldr
        {
          OFFSET 8.77824 -1.95073 1.46304
          CHANNELS 3 Zrotation Xrotation Yrotation
          JOINT lForeArm
          {
            OFFSET 28.1742 -1.7115 0.48768
            CHANNELS 3 Zrotation Xrotation Yrotation
            JOINT lHand
            {
              OFFSET 22.5879 0.773209 7.07136
              CHANNELS 3 Zrotation Xrotation Yrotation
              JOINT lThumb1
              {
                OFFSET 1.2192 -0.487915 3.41376
                CHANNELS 3 Zrotation Xrotation Yrotation
                JOINT lThumb2
                {
                  OFFSET 3.37035 -0.52449 3.41376
                  CHANNELS 3 Zrotation Xrotation Yrotation
                  End Site
                  {
                    OFFSET 1.78271 -1.18214 1.43049
                  }
                }
              }
              JOINT lIndex1
              {
                OFFSET 7.75947 0.938293 5.60832
                CHANNELS 3 Zrotation Xrotation Yrotation
                JOINT lIndex2
                {
                  OFFSET 2.54057 -0.884171 1.56538
                  CHANNELS 3 Zrotation Xrotation Yrotation
                  End Site
                  {
                    OFFSET 1.62519 -0.234802 1.16502
                  }
                }
              }
              JOINT lMid1
              {
                OFFSET 8.24714 1.18213 3.41376
                CHANNELS 3 Zrotation Xrotation Yrotation
                JOINT lMid2
                {
                  OFFSET 3.10165 -0.590103 1.0647
                  CHANNELS 3 Zrotation Xrotation Yrotation
                  End Site
                  {
                    OFFSET 2.48547 -0.328903 0.83742
                  }
                }
              }
              JOINT lRing1
              {
                OFFSET 8.82822 0.546677 1.51678
                CHANNELS 3 Zrotation Xrotation Yrotation
                JOINT lRing2
                {
                  OFFSET 2.60934 -0.819778 -0.0198488
                  CHANNELS 3 Zrotation Xrotation Yrotation
                  End Site
                  {
                    OFFSET 2.33842 -0.294052 0.168128
                  }
                }
              }
              JOINT lPinky1
              {
                OFFSET 8.27202 -0.0477905 -0.4584
                CHANNELS 3 Zrotation Xrotation Yrotation
                JOINT lPinky2
                {
                  OFFSET 1.82734 -0.647385 -0.700984
                  CHANNELS 3 Zrotation Xrotation Yrotation
                  End Site
                  {
                    OFFSET 1.69225 -0.51767 -0.607171
                  }
                }
              }
            }
          }
        }
      }
    }
  }
  JOINT rButtock
  {
    OFFSET -8.77824 4.35084 1.2192
    CHANNELS 3 Zrotation Xrotation Yrotation
    JOINT rThigh
    {
      OFFSET 0 -1.70687 -2.19456
      CHANNELS 3 Zrotation Xrotation Yrotation
      JOINT rShin
      {
        OFFSET 0 -36.8199 0.73152
        CHANNELS 3 Zrotation Xrotation Yrotation
        JOINT rFoot
        {
          OFFSET 0.73152 -45.1104 -5.12064
          CHANNELS 3 Zrotation Xrotation Yrotation
          End Site
          {
            OFFSET -1.1221 -3.69964 12.103
          }
        }
      }
    }
  }
  JOINT lButtock
  {
    OFFSET 8.77824 4.35084 1.2192
    CHANNELS 3 Zrotation Xrotation Yrotation
    JOINT lThigh
    {
      OFFSET 0 -1.70687 -2.19456
      CHANNELS 3 Zrotation Xrotation Yrotation
      JOINT lShin
      {
        OFFSET 0 -36.8199 0.73152
        CHANNELS 3 Zrotation Xrotation Yrotation
        JOINT lFoot
        {
          OFFSET -0.73152 -45.1104 -5.12064
          CHANNELS 3 Zrotation Xrotation Yrotation
          End Site
          {
            OFFSET 1.1221 -3.69964 12.103
          }
        }
      }
    }
  }
}
MOTION
Frames:	4
Frame Time:	0.00833333
101.9331 84.028206 -28.35171 -0.84999627 29.609995 4.6000223 0.21445042 -2.4300776 -4.259038 -2.6468818 1.9563588 -1.1927183 0.2183566 7.3456945 0.82138765 -3.8049192 -11.501606 1.2625271 -0.0 0.0 -0.0 -0.0 0.0 -0.0 0.0 0.0 -0.0 78.7698 38.38919 4.0366406 -27.896105 -30.015593 67.25369 -0.076825984 -7.883865 -1.114864 0.0 0.0 0.0 0.0 0.0 0.0 0.0 0.0 0.0 7.7309012 5.4749126 0.41732216 0.0 0.0 0.0 2.9055667 0.9650755 0.103008196 0.0 0.0 0.0 10.278597 0.731881 0.026273511 0.0 0.0 0.0 2.2216635 -0.73345095 -0.208321 0.0 0.0 -0.0 -46.561806 59.154 -49.61639 28.420298 -36.4257 -77.736305 2.8068454 -42.07398 7.289608 -0.0 0.0 -0.0 -0.0 0.0 -0.0 -0.0 0.0 -0.0 -7.7309012 5.4749126 -0.41732216 -0.0 0.0 -0.0 -2.9055667 0.9650755 -0.103008196 -0.0 0.0 -0.0 -10.278597 0.731881 -0.026273511 -0.0 0.0 -0.0 -2.2216635 -0.73345095 0.208321 -0.0 0.0 -0.0 -8.649326 -37.404198 2.4617848 -0.58393085 48.740803 0.8316825 0.54941416 10.909008 -10.584991 0.0 0.0 0.0 1.5885861 -16.7386 5.0134716 0.052141618 23.329393 -0.52930784 5.3297505 -14.263989 15.840907
102.125206 83.854004 -28.891312 -1.3199695 25.229988 4.51002 0.7831877 -2.1959553 -2.3194046 -2.9780383 1.553947 -0.6346758 -0.584292 7.643736 -0.16218606 -2.0369387 -11.756079 -0.38707486 -0.0 0.0 -0.0 -0.0 0.0 -0.0 -0.0 0.0 -0.0 78.033394 36.631596 6.9079056 -28.098501 -31.233303 69.2187 -0.20615661 -12.825654 -1.834066 0.0 0.0 -0.0 0.0 0.0 -0.0 0.0 0.0 -0.0 7.7309012 5.4749126 0.41732216 0.0 0.0 -0.0 2.9055667 0.9650755 0.103008196 0.0 0.0 -0.0 10.278597 0.731881 0.026273511 0.0 0.0 -0.0 2.2216635 -0.73345095 -0.208321 -0.0 0.0 -0.0 -46.952595 57.580997 -49.209698 28.43439 -35.652206 -76.423096 2.825131 -42.03635 7.289104 -0.0 0.0 -0.0 -0.0 0.0 -0.0 -0.0 0.0 -0.0 -7.7309012 5.4749126 -0.41732216 -0.0 0.0 -0.0 -2.9055667 0.9650755 -0.103008196 -0.0 0.0 -0.0 -10.278597 0.731881 -0.026273511 -0.0 0.0 -0.0 -2.2216635 -0.73345095 0.208321 -0.0 0.0 -0.0 -6.7490892 -35.968098 4.8318663 -0.46637133 44.894897 0.72089225 0.20052375 8.815812 -10.261813 0.0 0.0 0.0 2.612872 -17.815895 7.610211 0.08645681 25.360981 -0.58575857 6.101533 -14.581301 17.467299
102.94581 83.3959 -29.347212 -1.3800216 23.468996 4.520077 0.89773023 -1.7365918 -0.87475693 -3.0354013 0.9389639 -0.23504144 -1.0827918 8.337051 -1.3974485 -1.1139746 -11.596797 -2.644709 -0.0 0.0 -0.0 -0.0 0.0 -0.0 -0.0 -0.0 -0.0 77.15859 33.9315 10.180401 -28.1684 -31.734894 70.02881 -0.44186136 -18.554525 -2.7045276 -0.0 0.0 -0.0 -0.0 0.0 -0.0 -0.0 0.0 -0.0 7.7309012 5.4749126 0.41732216 -0.0 0.0 -0.0 2.9055667 0.9650755 0.103008196 -0.0 0.0 -0.0 10.278597 0.731881 0.026273511 -0.0 0.0 -0.0 2.2216635 -0.73345095 -0.208321 -0.0 -0.0 -0.0 -45.621895 57.65291 -49.458107 28.430302 -35.629395 -76.406105 2.7907898 -41.982094 7.2653403 -0.0 0.0 -0.0 -0.0 0.0 -0.0 -0.0 0.0 -0.0 -7.7309012 5.4749126 -0.41732216 -0.0 0.0 -0.0 -2.9055667 0.9650755 -0.103008196 -0.0 0.0 -0.0 -10.278597 0.731881 -0.026273511 -0.0 0.0 -0.0 -2.2216635 -0.73345095 0.208321 -0.0 0.0 -0.0 -5.2801204 -37.473305 7.768997 -0.5229356 46.8262 0.7582148 0.47161025 9.725614 -12.042097 0.0 0.0 0.0 2.1134074 -18.761106 8.512237 0.10153086 27.325495 -0.6470327 6.6479464 -15.285498 18.275295
104.835 82.927605 -29.57131 -0.310074 26.074009 4.360069 -0.15686683 -1.1528621 -1.6166134 -2.4562087 1.0404752 -0.4538352 -1.6517422 8.994153 -2.957782 -0.44454965 -11.653074 -5.5626426 -0.0 0.0 -0.0 -0.0 0.0 -0.0 -0.0 -0.0 -0.0 75.6715 29.731401 14.134296 -28.16049 -31.685307 69.9584 -0.92869735 -26.271935 -3.9780095 0.0 0.0 -0.0 0.0 0.0 -0.0 0.0 0.0 -0.0 7.7309012 5.4749126 0.41732216 0.0 0.0 -0.0 2.9055667 0.9650755 0.103008196 0.0 0.0 -0.0 10.278597 0.731881 0.026273511 0.0 0.0 -0.0 2.2216635 -0.73345095 -0.208321 -0.0 -0.0 -0.0 -41.793118 57.91101 -52.534595 28.400707 -36.72209 -78.2795 2.76153 -41.810715 7.2215295 -0.0 0.0 -0.0 -0.0 0.0 -0.0 -0.0 0.0 -0.0 -7.7309012 5.4749126 -0.41732216 -0.0 0.0 -0.0 -2.9055667 0.9650755 -0.103008196 -0.0 0.0 -0.0 -10.278597 0.731881 -0.026273511 -0.0 0.0 -0.0 -2.2216635 -0.73345095 0.208321 -0.0 0.0 -0.0 -6.059707 -41.2852 7.416563 -0.80163723 53.803997 0.9358909 1.650759 12.390999 -18.795195 0.0 0.0 0.0 -0.3416306 -18.354496 8.093275 0.090014726 27.594603 -0.6656237 6.479049 -15.964699 17.446804
